# Blender v2.92.0 OBJ File: ''
# www.blender.org
mtllib map_floor.mtl
o Plane.001
v 6.312013 22.021584 0.000022
v 22.021584 -22.021584 -0.000022
v 6.312013 -22.021584 -0.000022
v -22.021584 22.021584 0.000022
v -22.021584 -22.021584 -0.000022
v 22.021584 -22.021582 -1.995051
v 6.312013 22.021585 -1.995007
v 6.312013 -22.021582 -1.995051
v -22.021584 22.021585 -1.995007
v -22.021584 -22.021582 -1.995051
v 22.021584 22.021584 0.000022
v 22.021584 22.021585 -1.995007
vt 0.643314 1.000000
vt 1.000000 0.000000
vt 0.643314 0.000000
vt 0.000000 0.997162
vt 0.643314 -0.002838
vt 0.000000 -0.002838
vt 1.000000 0.000000
vt 0.643314 1.000000
vt 0.643314 0.000000
vt 0.643314 -0.002838
vt 0.000000 0.997162
vt 0.000000 -0.002838
vt 1.000000 1.000000
vt 1.000000 1.000000
vt 0.643314 0.997162
vt 0.643314 0.997162
vn 0.0000 0.0000 -1.0000
vn 0.0000 -0.0000 1.0000
vn 0.0000 1.0000 0.0000
vn -1.0000 0.0000 0.0000
vn 1.0000 0.0000 0.0000
vn 0.0000 -1.0000 -0.0000
usemtl Material.004
s 1
f 1/1/1 2/2/1 3/3/1
f 4/4/1 3/5/1 5/6/1
f 6/7/2 7/8/2 8/9/2
f 8/10/2 9/11/2 10/12/2
f 3/5/3 10/12/3 5/6/3
f 11/13/4 6/7/4 2/2/4
f 5/6/5 9/11/5 4/4/5
f 1/1/6 12/14/6 11/13/6
f 4/4/6 7/15/6 1/16/6
f 2/2/3 8/9/3 3/3/3
f 1/1/1 11/13/1 2/2/1
f 4/4/1 1/16/1 3/5/1
f 6/7/2 12/14/2 7/8/2
f 8/10/2 7/15/2 9/11/2
f 3/5/3 8/10/3 10/12/3
f 5/6/5 10/12/5 9/11/5
f 1/1/6 7/8/6 12/14/6
f 4/4/6 9/11/6 7/15/6
f 2/2/3 6/7/3 8/9/3
f 11/13/4 12/14/4 6/7/4
